<svg width="88" height="25" viewBox="0 0 88 25" fill="none" xmlns="http://www.w3.org/2000/svg">
<path d="M0.704 19C0.72 18.84 0.744 18.472 0.776 17.896C0.808 17.32 0.848 16.6 0.896 15.736C0.944 14.872 0.992 13.928 1.04 12.904C1.104 11.864 1.16 10.808 1.208 9.736C1.272 8.664 1.32 7.632 1.352 6.64C1.384 5.648 1.4 4.768 1.4 4C1.4 3.76 1.448 3.592 1.544 3.496C1.656 3.4 1.928 3.352 2.36 3.352C2.68 3.352 3.032 3.384 3.416 3.448C3.816 3.496 4.192 3.584 4.544 3.712C4.896 3.824 5.184 3.976 5.408 4.168C5.648 4.344 5.768 4.56 5.768 4.816C5.768 4.864 5.752 5.112 5.72 5.56C5.688 5.992 5.648 6.552 5.6 7.24C5.568 7.928 5.52 8.672 5.456 9.472C5.408 10.272 5.36 11.08 5.312 11.896C5.28 12.712 5.248 13.472 5.216 14.176C5.184 14.864 5.168 15.432 5.168 15.88C5.168 16.136 5.216 16.336 5.312 16.48C5.408 16.624 5.608 16.728 5.912 16.792C6.216 16.84 6.672 16.864 7.28 16.864C7.824 16.864 8.328 16.84 8.792 16.792C9.272 16.744 9.672 16.704 9.992 16.672C10.312 16.624 10.504 16.6 10.568 16.6C10.648 16.6 10.696 16.648 10.712 16.744C10.728 16.824 10.736 17 10.736 17.272C10.736 17.416 10.712 17.632 10.664 17.92C10.616 18.192 10.536 18.44 10.424 18.664C10.328 18.888 10.176 19 9.968 19H0.704ZM14.4661 19.312C14.3701 19.312 14.1861 19.272 13.9141 19.192C13.6421 19.112 13.3541 19 13.0501 18.856C12.7461 18.696 12.4821 18.512 12.2581 18.304C12.0341 18.096 11.8981 17.872 11.8501 17.632C11.8341 17.552 11.8181 17.432 11.8021 17.272C11.7861 17.112 11.7781 16.888 11.7781 16.6C11.7941 16.408 11.8101 16.064 11.8261 15.568C11.8581 15.056 11.8901 14.456 11.9221 13.768C11.9701 13.064 12.0101 12.344 12.0421 11.608C12.0901 10.872 12.1301 10.168 12.1621 9.496C12.2101 8.808 12.2421 8.24 12.2581 7.792C12.2901 7.344 12.3061 7.064 12.3061 6.952C12.3061 6.776 12.3461 6.648 12.4261 6.568C12.5221 6.472 12.6981 6.424 12.9541 6.424C13.4821 6.424 14.0261 6.496 14.5861 6.64C15.1461 6.768 15.6181 6.968 16.0021 7.24C16.3861 7.496 16.5781 7.824 16.5781 8.224C16.5781 8.336 16.5541 8.592 16.5061 8.992C16.4741 9.392 16.4341 9.864 16.3861 10.408C16.3541 10.952 16.3141 11.504 16.2661 12.064C16.2181 12.608 16.1781 13.096 16.1461 13.528C16.1141 13.944 16.0981 14.232 16.0981 14.392C16.0981 15.064 16.1141 15.48 16.1461 15.64C16.1941 15.8 16.2741 15.88 16.3861 15.88C16.4501 15.88 16.5381 15.824 16.6501 15.712C16.7781 15.6 16.9061 15.472 17.0341 15.328C17.1781 15.184 17.3141 15.04 17.4421 14.896C17.5701 14.752 17.6661 14.64 17.7301 14.56C17.8261 14.448 17.8821 14.384 17.8981 14.368C17.9141 14.352 17.9461 14.344 17.9941 14.344C18.0901 14.344 18.1861 14.416 18.2821 14.56C18.3941 14.688 18.4741 14.864 18.5221 15.088C18.5381 15.184 18.5301 15.288 18.4981 15.4C18.4661 15.496 18.4181 15.592 18.3541 15.688C18.2261 15.896 18.0021 16.2 17.6821 16.6C17.3621 17 17.0021 17.408 16.6021 17.824C16.2021 18.24 15.8101 18.592 15.4261 18.88C15.0581 19.168 14.7381 19.312 14.4661 19.312ZM14.3701 4.336C13.9541 4.336 13.5861 4.256 13.2661 4.096C12.9461 3.92 12.6981 3.704 12.5221 3.448C12.3461 3.176 12.2581 2.912 12.2581 2.656C12.2581 2.224 12.3861 1.88 12.6421 1.624C12.8981 1.352 13.2261 1.16 13.6261 1.048C14.0421 0.919999 14.4741 0.855999 14.9221 0.855999C15.2741 0.855999 15.6101 0.911999 15.9301 1.024C16.2661 1.12 16.5381 1.288 16.7461 1.528C16.9541 1.768 17.0581 2.096 17.0581 2.512C17.0581 2.848 16.9141 3.16 16.6261 3.448C16.3541 3.72 16.0101 3.936 15.5941 4.096C15.1781 4.256 14.7701 4.336 14.3701 4.336ZM16.6034 17.728C16.5394 17.776 16.4754 17.736 16.4114 17.608C16.3314 17.48 16.2674 17.32 16.2194 17.128C16.1714 16.92 16.1474 16.728 16.1474 16.552C16.1474 16.36 16.1794 16.232 16.2434 16.168C16.9794 15.384 17.6034 14.616 18.1154 13.864C18.6274 13.112 19.0514 12.384 19.3874 11.68C19.7394 10.96 20.0594 10.28 20.3474 9.64C20.4434 9.448 20.5074 9.4 20.5394 9.496C20.5874 9.592 20.6114 9.744 20.6114 9.952C20.6274 10.16 20.6274 10.336 20.6114 10.48C20.5474 11.024 20.3874 11.632 20.1314 12.304C19.8754 12.976 19.5554 13.656 19.1714 14.344C18.8034 15.016 18.3954 15.648 17.9474 16.24C17.4994 16.832 17.0514 17.328 16.6034 17.728ZM23.2994 19.312C22.7874 19.312 22.2514 19.24 21.6914 19.096C21.1314 18.968 20.6594 18.776 20.2754 18.52C19.9074 18.248 19.7234 17.912 19.7234 17.512C19.7234 17.208 19.7314 16.768 19.7474 16.192C19.7794 15.616 19.8114 14.96 19.8434 14.224C19.8914 13.472 19.9394 12.712 19.9874 11.944C20.0354 11.16 20.0754 10.424 20.1074 9.736C20.1554 9.032 20.1874 8.44 20.2034 7.96C20.2354 7.464 20.2514 7.128 20.2514 6.952C20.2514 6.776 20.2914 6.648 20.3714 6.568C20.4674 6.472 20.6434 6.424 20.8994 6.424C21.4274 6.424 21.9714 6.496 22.5314 6.64C23.0914 6.768 23.5634 6.968 23.9474 7.24C24.3314 7.496 24.5234 7.824 24.5234 8.224C24.5234 8.304 24.5154 8.456 24.4994 8.68C24.4834 8.904 24.4594 9.168 24.4274 9.472C24.4114 9.776 24.3874 10.104 24.3554 10.456C24.3234 10.808 24.2914 11.16 24.2594 11.512C24.2274 11.848 24.1954 12.168 24.1634 12.472C24.1474 12.76 24.1314 13 24.1154 13.192C24.2114 12.776 24.4194 12.288 24.7394 11.728C25.0754 11.152 25.4674 10.56 25.9154 9.952C26.3794 9.328 26.8594 8.752 27.3554 8.224C27.8514 7.68 28.3074 7.248 28.7234 6.928C29.1554 6.592 29.5074 6.424 29.7794 6.424C29.8754 6.424 30.0514 6.464 30.3074 6.544C30.5794 6.624 30.8674 6.744 31.1714 6.904C31.4754 7.048 31.7394 7.224 31.9634 7.432C32.1874 7.624 32.3234 7.848 32.3714 8.104C32.4034 8.248 32.4194 8.408 32.4194 8.584C32.4354 8.76 32.4434 8.944 32.4434 9.136C32.4434 9.296 32.4274 9.624 32.3954 10.12C32.3634 10.616 32.3234 11.168 32.2754 11.776C32.2274 12.384 32.1874 12.96 32.1554 13.504C32.1394 14.048 32.1314 14.464 32.1314 14.752C32.1314 15.136 32.1474 15.392 32.1794 15.52C32.2274 15.648 32.3074 15.712 32.4194 15.712C32.4834 15.712 32.5714 15.664 32.6834 15.568C32.8114 15.456 32.9394 15.328 33.0674 15.184C33.2114 15.024 33.3394 14.872 33.4514 14.728C33.5794 14.584 33.6834 14.472 33.7634 14.392C33.8434 14.296 33.8914 14.24 33.9074 14.224C33.9394 14.192 33.9714 14.176 34.0034 14.176C34.1154 14.176 34.2354 14.272 34.3634 14.464C34.4914 14.656 34.5554 14.864 34.5554 15.088C34.5554 15.184 34.5314 15.288 34.4834 15.4C34.4514 15.496 34.4034 15.592 34.3394 15.688C34.1954 15.896 33.9634 16.2 33.6434 16.6C33.3234 17 32.9714 17.408 32.5874 17.824C32.2034 18.24 31.8194 18.592 31.4354 18.88C31.0674 19.168 30.7554 19.312 30.4994 19.312C30.4034 19.312 30.2194 19.272 29.9474 19.192C29.6914 19.112 29.4114 19 29.1074 18.856C28.8034 18.696 28.5314 18.512 28.2914 18.304C28.0514 18.096 27.9074 17.872 27.8594 17.632C27.8434 17.472 27.8274 17.312 27.8114 17.152C27.7954 16.976 27.7874 16.792 27.7874 16.6C27.7874 16.488 27.7954 16.256 27.8114 15.904C27.8434 15.552 27.8754 15.144 27.9074 14.68C27.9554 14.216 27.9874 13.76 28.0034 13.312C28.0354 12.848 28.0594 12.44 28.0754 12.088C28.1074 11.736 28.1234 11.488 28.1234 11.344C28.1234 10.752 28.0994 10.384 28.0514 10.24C28.0194 10.096 27.9474 10.024 27.8354 10.024C27.7394 10.024 27.5634 10.16 27.3074 10.432C27.0514 10.704 26.7634 11.064 26.4434 11.512C26.1234 11.96 25.8034 12.464 25.4834 13.024C25.1794 13.584 24.9074 14.152 24.6674 14.728C24.3954 15.464 24.2034 16.144 24.0914 16.768C23.9954 17.392 23.9474 18.064 23.9474 18.784C23.9474 18.96 23.8994 19.088 23.8034 19.168C23.7234 19.264 23.5554 19.312 23.2994 19.312ZM32.5158 17.776C32.4678 17.824 32.3638 17.832 32.2038 17.8C32.0278 17.768 31.8518 17.72 31.6758 17.656C31.4838 17.576 31.3318 17.496 31.2198 17.416C31.0918 17.336 31.0518 17.272 31.0998 17.224C32.4278 15.832 33.4998 14.576 34.3158 13.456C35.1158 12.32 35.7078 11.296 36.0918 10.384C36.4918 9.472 36.7318 8.648 36.8118 7.912C36.8438 7.688 36.9158 7.608 37.0278 7.672C37.1398 7.736 37.2518 7.912 37.3638 8.2C37.4918 8.472 37.5718 8.816 37.6038 9.232C37.6358 9.632 37.5878 10.072 37.4598 10.552C37.2678 11.192 36.9558 11.88 36.5238 12.616C36.1078 13.336 35.6358 14.04 35.1078 14.728C34.5958 15.416 34.1078 16.032 33.6438 16.576C33.1638 17.12 32.7878 17.52 32.5158 17.776ZM39.2838 19.312C38.7718 19.312 38.2358 19.24 37.6758 19.096C37.1158 18.968 36.6438 18.776 36.2598 18.52C35.8918 18.248 35.7078 17.912 35.7078 17.512C35.7078 17.256 35.7238 16.8 35.7558 16.144C35.7878 15.472 35.8278 14.68 35.8758 13.768C35.9398 12.856 36.0038 11.88 36.0678 10.84C36.1318 9.8 36.1958 8.76 36.2598 7.72C36.3238 6.68 36.3798 5.72 36.4278 4.84C36.4918 3.944 36.5398 3.192 36.5718 2.584C36.6038 1.976 36.6198 1.576 36.6198 1.384C36.6198 1.208 36.6598 1.08 36.7398 0.999999C36.8358 0.903999 37.0118 0.855999 37.2678 0.855999C37.8118 0.855999 38.3558 0.927999 38.8998 1.072C39.4598 1.2 39.9318 1.4 40.3158 1.672C40.6998 1.928 40.8918 2.256 40.8918 2.656C40.8918 2.736 40.8758 3.024 40.8438 3.52C40.8118 4 40.7638 4.6 40.6998 5.32C40.6358 6.04 40.5718 6.808 40.5078 7.624C40.4438 8.424 40.3798 9.192 40.3158 9.928C40.2518 10.664 40.2038 11.296 40.1718 11.824C40.1398 12.352 40.1238 12.688 40.1238 12.832C40.2518 12.32 40.4838 11.776 40.8198 11.2C41.1718 10.624 41.5638 10.056 41.9958 9.496C42.4438 8.92 42.8998 8.4 43.3638 7.936C43.8278 7.472 44.2598 7.104 44.6598 6.832C45.0758 6.56 45.4038 6.424 45.6438 6.424C45.8038 6.424 46.0278 6.472 46.3158 6.568C46.6038 6.664 46.8998 6.824 47.2038 7.048C47.5238 7.256 47.7878 7.528 47.9958 7.864C48.2198 8.184 48.3318 8.584 48.3318 9.064C48.3318 9.48 48.2198 9.88 47.9958 10.264C47.7718 10.648 47.4998 11.008 47.1798 11.344C46.8598 11.664 46.5398 11.936 46.2198 12.16C45.9158 12.384 45.6758 12.544 45.4998 12.64C45.6438 12.736 45.8278 12.88 46.0518 13.072C46.2758 13.248 46.5078 13.448 46.7478 13.672C46.9878 13.896 47.2198 14.112 47.4438 14.32C47.6678 14.528 47.8598 14.72 48.0198 14.896C48.1798 15.056 48.2918 15.232 48.3558 15.424C48.4198 15.616 48.4518 15.816 48.4518 16.024C48.4518 16.488 48.3238 16.984 48.0678 17.512C47.8118 18.024 47.5078 18.496 47.1558 18.928C46.9798 19.184 46.8198 19.312 46.6758 19.312C46.5478 19.312 46.4038 19.232 46.2438 19.072C46.1478 18.96 45.9318 18.752 45.5958 18.448C45.2758 18.128 44.8918 17.76 44.4438 17.344C44.0118 16.928 43.5718 16.512 43.1238 16.096C42.6758 15.664 42.2598 15.288 41.8758 14.968C41.5078 14.632 41.2358 14.4 41.0598 14.272C41.5718 14.128 42.0918 13.872 42.6198 13.504C43.1638 13.136 43.6198 12.728 43.9878 12.28C44.3558 11.816 44.5398 11.344 44.5398 10.864C44.5398 10.528 44.4598 10.296 44.2998 10.168C44.1398 10.024 43.9718 9.952 43.7958 9.952C43.6198 9.952 43.3798 10.096 43.0758 10.384C42.7718 10.672 42.4518 11.056 42.1158 11.536C41.7958 12.016 41.4758 12.56 41.1558 13.168C40.8518 13.776 40.5958 14.408 40.3878 15.064C40.1638 15.736 40.0278 16.352 39.9798 16.912C39.9478 17.472 39.9318 18.096 39.9318 18.784C39.9318 18.96 39.8838 19.088 39.7878 19.168C39.7078 19.264 39.5398 19.312 39.2838 19.312ZM46.6631 19.312C46.6151 19.312 46.5911 19.176 46.5911 18.904C46.5911 18.616 46.6151 18.28 46.6631 17.896C46.7111 17.496 46.7831 17.136 46.8791 16.816C46.9591 16.496 47.0471 16.288 47.1431 16.192C47.4471 15.936 47.7591 15.608 48.0791 15.208C48.3831 14.792 48.6791 14.336 48.9671 13.84C49.2551 13.344 49.5271 12.848 49.7831 12.352C50.0391 11.856 50.2631 11.384 50.4551 10.936C50.6631 10.488 50.8311 10.104 50.9591 9.784C50.9911 9.688 51.0311 9.696 51.0791 9.808C51.1271 9.92 51.1671 10.08 51.1991 10.288C51.2471 10.48 51.2791 10.672 51.2951 10.864C51.3111 11.056 51.3031 11.2 51.2711 11.296C51.1111 11.936 50.8711 12.624 50.5511 13.36C50.2471 14.08 49.9031 14.792 49.5191 15.496C49.1511 16.2 48.7831 16.84 48.4151 17.416C48.0311 17.992 47.6791 18.456 47.3591 18.808C47.0391 19.144 46.8071 19.312 46.6631 19.312ZM53.4037 24.856C53.0037 24.856 52.5957 24.816 52.1797 24.736C51.7637 24.672 51.3717 24.56 51.0037 24.4C50.6357 24.256 50.3397 24.072 50.1157 23.848C49.8917 23.624 49.7797 23.36 49.7797 23.056C49.7797 22.928 49.8117 22.52 49.8757 21.832C49.9557 21.144 50.0517 20.08 50.1637 18.64H50.0437C49.9797 18.64 49.9317 18.624 49.8997 18.592C49.8837 18.56 49.8757 18.48 49.8757 18.352C49.8757 18.048 49.9157 17.792 49.9957 17.584C50.0917 17.376 50.1717 17.272 50.2357 17.272C50.2677 16.872 50.2997 16.36 50.3317 15.736C50.3797 15.112 50.4197 14.44 50.4517 13.72C50.4837 12.984 50.5157 12.248 50.5477 11.512C50.5957 10.776 50.6277 10.088 50.6437 9.448C50.6757 8.792 50.6997 8.248 50.7157 7.816C50.7317 7.384 50.7397 7.096 50.7397 6.952C50.7397 6.776 50.7877 6.648 50.8837 6.568C50.9797 6.472 51.1477 6.424 51.3877 6.424C51.9317 6.424 52.4837 6.496 53.0437 6.64C53.6037 6.768 54.0677 6.968 54.4357 7.24C54.8197 7.496 55.0117 7.824 55.0117 8.224C55.0117 8.32 55.0037 8.496 54.9877 8.752C54.9717 9.008 54.9477 9.32 54.9157 9.688C54.8837 10.04 54.8517 10.416 54.8197 10.816C54.7877 11.216 54.7477 11.608 54.6997 11.992C54.6677 12.376 54.6357 12.728 54.6037 13.048C54.7157 12.632 54.9317 12.144 55.2517 11.584C55.5717 11.024 55.9557 10.448 56.4037 9.856C56.8517 9.248 57.3157 8.688 57.7957 8.176C58.2757 7.648 58.7237 7.224 59.1397 6.904C59.5717 6.584 59.9237 6.424 60.1957 6.424C60.2917 6.424 60.4677 6.464 60.7237 6.544C60.9957 6.624 61.2837 6.744 61.5877 6.904C61.9077 7.048 62.1797 7.224 62.4037 7.432C62.6277 7.624 62.7637 7.848 62.8117 8.104C62.8597 8.264 62.8917 8.48 62.9077 8.752C62.9237 9.024 62.9317 9.376 62.9317 9.808C62.9317 10.272 62.9157 10.824 62.8837 11.464C62.8677 12.104 62.8277 12.768 62.7637 13.456C62.6997 14.128 62.5957 14.76 62.4517 15.352C62.3077 15.928 62.1077 16.392 61.8517 16.744C61.1957 17.64 60.4917 18.296 59.7397 18.712C59.0037 19.112 58.0917 19.312 57.0037 19.312C56.6837 19.312 56.2917 19.288 55.8277 19.24C55.3637 19.208 54.8677 19.176 54.3397 19.144C54.2597 20.264 54.1957 21.176 54.1477 21.88C54.1157 22.584 54.0917 23.12 54.0757 23.488C54.0597 23.872 54.0517 24.152 54.0517 24.328C54.0517 24.504 54.0037 24.632 53.9077 24.712C53.8277 24.808 53.6597 24.856 53.4037 24.856ZM56.4997 17.824C57.2197 17.824 57.7477 17.296 58.0837 16.24C58.4357 15.184 58.6117 13.72 58.6117 11.848C58.6117 11.08 58.5877 10.592 58.5397 10.384C58.5077 10.16 58.4197 10.048 58.2757 10.048C58.1957 10.048 58.0517 10.152 57.8437 10.36C57.6357 10.552 57.3957 10.832 57.1237 11.2C56.8517 11.568 56.5637 11.992 56.2597 12.472C55.9717 12.952 55.6997 13.48 55.4437 14.056C55.1877 14.616 54.9717 15.192 54.7957 15.784C54.6197 16.376 54.5157 16.968 54.4837 17.56C54.8837 17.656 55.2517 17.728 55.5877 17.776C55.9397 17.808 56.2437 17.824 56.4997 17.824ZM56.3842 19.312C56.1922 19.312 56.1922 19.232 56.3842 19.072C56.5602 18.928 56.8642 18.728 57.2962 18.472C57.7122 18.216 58.1842 17.92 58.7122 17.584C59.2402 17.248 59.7602 16.904 60.2722 16.552C61.1042 16.088 61.8322 15.576 62.4562 15.016C63.0802 14.44 63.6162 13.856 64.0642 13.264C64.5122 12.672 64.8882 12.096 65.1922 11.536C65.5122 10.96 65.7762 10.448 65.9842 10C66.0802 9.824 66.1522 9.776 66.2002 9.856C66.2642 9.936 66.3122 10.088 66.3442 10.312C66.3762 10.536 66.3922 10.776 66.3922 11.032C66.3922 11.288 66.3762 11.496 66.3442 11.656C66.2162 12.12 65.9842 12.624 65.6482 13.168C65.3282 13.712 64.9282 14.264 64.4482 14.824C63.9682 15.368 63.4482 15.896 62.8882 16.408C62.3122 16.904 61.7282 17.36 61.1362 17.776C60.5442 18.192 59.9762 18.52 59.4322 18.76C59.1282 18.888 58.7362 19.008 58.2562 19.12C57.7602 19.248 57.1362 19.312 56.3842 19.312ZM68.9317 19.312C68.4197 19.312 67.8837 19.24 67.3237 19.096C66.7797 18.968 66.3157 18.776 65.9317 18.52C65.5637 18.248 65.3797 17.912 65.3797 17.512C65.3797 17.208 65.3877 16.768 65.4037 16.192C65.4357 15.616 65.4677 14.96 65.4997 14.224C65.5477 13.472 65.5957 12.712 65.6437 11.944C65.6917 11.176 65.7317 10.44 65.7637 9.736C65.8117 9.032 65.8437 8.44 65.8597 7.96C65.8917 7.464 65.9077 7.128 65.9077 6.952C65.9077 6.776 65.9477 6.648 66.0277 6.568C66.1237 6.472 66.2997 6.424 66.5557 6.424C67.0837 6.424 67.6277 6.496 68.1877 6.64C68.7477 6.768 69.2197 6.968 69.6037 7.24C69.9877 7.496 70.1797 7.824 70.1797 8.224C70.1797 8.336 70.1637 8.504 70.1317 8.728C70.1157 8.936 70.0997 9.192 70.0837 9.496C70.0677 9.784 70.0357 10.088 69.9877 10.408C69.9557 10.728 69.9237 11.048 69.8917 11.368C69.8757 11.672 69.8597 11.936 69.8437 12.16C70.2437 10.928 70.6677 9.888 71.1157 9.04C71.5797 8.176 72.0437 7.528 72.5077 7.096C72.9717 6.648 73.4037 6.424 73.8037 6.424C74.3157 6.424 74.6437 6.592 74.7877 6.928C74.9317 7.248 75.0037 7.712 75.0037 8.32C75.0037 8.768 74.9077 9.144 74.7157 9.448C74.5237 9.736 74.1877 9.88 73.7077 9.88C73.3717 9.88 73.0277 10.024 72.6757 10.312C72.3237 10.584 71.9797 10.96 71.6437 11.44C71.3237 11.904 71.0277 12.424 70.7557 13C70.4837 13.56 70.2597 14.136 70.0837 14.728C69.8597 15.448 69.7237 16.12 69.6757 16.744C69.6277 17.352 69.6037 18.032 69.6037 18.784C69.6037 18.96 69.5557 19.088 69.4597 19.168C69.3797 19.264 69.2037 19.312 68.9317 19.312ZM74.1624 11.752C73.7464 11.752 73.4424 11.624 73.2504 11.368C73.0584 11.096 72.9624 10.792 72.9624 10.456C72.9624 10.264 72.9944 10.04 73.0584 9.784C73.1224 9.528 73.2104 9.28 73.3224 9.04C73.4664 8.704 73.6504 8.416 73.8744 8.176C74.0984 7.92 74.3384 7.792 74.5944 7.792C74.8664 7.792 75.0024 8.008 75.0024 8.44C75.0024 8.68 74.9784 8.864 74.9304 8.992C74.8824 9.12 74.8584 9.264 74.8584 9.424C74.8584 9.552 74.8984 9.648 74.9784 9.712C75.0584 9.76 75.1944 9.784 75.3864 9.784C75.6584 9.784 75.8904 9.728 76.0824 9.616C76.2744 9.488 76.4264 9.328 76.5384 9.136C76.6024 8.976 76.7064 8.936 76.8504 9.016C77.0104 9.096 77.0744 9.184 77.0424 9.28C77.0264 9.344 76.9944 9.432 76.9464 9.544C76.8984 9.64 76.8424 9.712 76.7784 9.76C76.6024 10.064 76.3704 10.376 76.0824 10.696C75.7944 11 75.4824 11.256 75.1464 11.464C74.8104 11.656 74.4824 11.752 74.1624 11.752ZM81.4728 19.312C80.6408 19.312 79.8648 19.248 79.1448 19.12C78.4248 19.008 77.7928 18.768 77.2488 18.4C76.7208 18.032 76.3128 17.48 76.0248 16.744C75.7368 15.992 75.5928 14.992 75.5928 13.744C75.5928 11.952 75.8328 10.52 76.3128 9.448C76.8088 8.376 77.4888 7.608 78.3528 7.144C79.2328 6.664 80.2328 6.424 81.3528 6.424C82.1848 6.424 82.9528 6.488 83.6568 6.616C84.3768 6.728 85.0008 6.968 85.5288 7.336C86.0728 7.704 86.4888 8.264 86.7768 9.016C87.0808 9.752 87.2328 10.744 87.2328 11.992C87.2328 13.768 86.9848 15.2 86.4888 16.288C85.9928 17.36 85.3128 18.136 84.4488 18.616C83.6008 19.08 82.6088 19.312 81.4728 19.312ZM81.0648 17.872C81.6568 17.872 82.1608 17.368 82.5768 16.36C83.0088 15.336 83.2248 13.824 83.2248 11.824C83.2248 10.72 83.1768 9.888 83.0808 9.328C83.0008 8.768 82.8568 8.392 82.6488 8.2C82.4408 7.992 82.1448 7.888 81.7608 7.888C81.1528 7.888 80.6408 8.4 80.2248 9.424C79.8088 10.448 79.6008 11.96 79.6008 13.96C79.6008 15.048 79.6408 15.872 79.7208 16.432C79.8008 16.992 79.9448 17.376 80.1528 17.584C80.3608 17.776 80.6648 17.872 81.0648 17.872Z" fill="#1B89FF"/>
</svg>
