<svg width="50" height="50" viewBox="0 0 50 50" fill="none" xmlns="http://www.w3.org/2000/svg">
<rect width="50" height="50" rx="5" fill="#1B89FF"/>
<path d="M9.22 34.26C9.14 34.26 8.98667 34.2267 8.76 34.16C8.54667 34.0933 8.31333 34 8.06 33.88C7.80667 33.7467 7.58 33.5933 7.38 33.42C7.19333 33.2467 7.08 33.06 7.04 32.86C7.02667 32.7933 7.01333 32.6933 7 32.56C7 32.4267 7 32.24 7 32C7 31.8667 7.01333 31.5667 7.04 31.1C7.06667 30.6333 7.1 30.06 7.14 29.38C7.18 28.6867 7.22667 27.9333 7.28 27.12C7.33333 26.3067 7.38667 25.4867 7.44 24.66C7.49333 23.8333 7.54 23.06 7.58 22.34C7.62 21.62 7.65333 20.9933 7.68 20.46C7.70667 19.9133 7.72 19.5333 7.72 19.32C7.72 19.1733 7.76 19.0667 7.84 19C7.92 18.92 8.06 18.88 8.26 18.88C8.71333 18.88 9.17333 18.94 9.64 19.06C10.1067 19.1667 10.4933 19.3333 10.8 19.56C11.12 19.7733 11.28 20.0467 11.28 20.38C11.28 20.4467 11.26 20.7133 11.22 21.18C11.1933 21.6467 11.1533 22.2267 11.1 22.92C11.0467 23.6133 10.9867 24.3467 10.92 25.12C10.8667 25.8933 10.8133 26.64 10.76 27.36C10.7067 28.08 10.66 28.6933 10.62 29.2C10.5933 29.7067 10.58 30.0267 10.58 30.16C10.58 30.6533 10.6 30.96 10.64 31.08C10.68 31.2 10.74 31.26 10.82 31.26C10.8733 31.26 10.9467 31.22 11.04 31.14C11.1467 31.0467 11.26 30.94 11.38 30.82C11.5 30.6867 11.6067 30.56 11.7 30.44C11.8067 30.32 11.8867 30.2267 11.94 30.16C12.02 30.08 12.0667 30.0333 12.08 30.02C12.0933 29.9933 12.12 29.98 12.16 29.98C12.2533 29.98 12.3467 30.06 12.44 30.22C12.5467 30.38 12.6 30.5533 12.6 30.74C12.6 30.9 12.54 31.0667 12.42 31.24C12.3 31.4133 12.1067 31.6667 11.84 32C11.5867 32.3333 11.2933 32.6733 10.96 33.02C10.64 33.3667 10.3267 33.66 10.02 33.9C9.71333 34.14 9.44667 34.26 9.22 34.26ZM10.982 32.94C10.9287 32.98 10.8754 32.9467 10.822 32.84C10.7554 32.7333 10.702 32.6 10.662 32.44C10.622 32.2667 10.602 32.1067 10.602 31.96C10.602 31.8 10.6287 31.6933 10.682 31.64C11.2954 30.9867 11.8154 30.3467 12.242 29.72C12.6687 29.0933 13.022 28.4867 13.302 27.9C13.5954 27.3 13.862 26.7333 14.102 26.2C14.182 26.04 14.2354 26 14.262 26.08C14.302 26.16 14.322 26.2867 14.322 26.46C14.3354 26.6333 14.3354 26.78 14.322 26.9C14.2687 27.3533 14.1354 27.86 13.922 28.42C13.7087 28.98 13.442 29.5467 13.122 30.12C12.8154 30.68 12.4754 31.2067 12.102 31.7C11.7287 32.1933 11.3554 32.6067 10.982 32.94ZM15.822 34.26C15.742 34.26 15.5887 34.2267 15.362 34.16C15.1354 34.0933 14.8954 34 14.642 33.88C14.3887 33.7467 14.1687 33.5933 13.982 33.42C13.7954 33.2467 13.682 33.06 13.642 32.86C13.6287 32.7933 13.6154 32.6933 13.602 32.56C13.5887 32.4267 13.582 32.24 13.582 32C13.5954 31.84 13.6087 31.5533 13.622 31.14C13.6487 30.7133 13.6754 30.2133 13.702 29.64C13.742 29.0533 13.7754 28.4533 13.802 27.84C13.842 27.2267 13.8754 26.64 13.902 26.08C13.942 25.5067 13.9687 25.0333 13.982 24.66C14.0087 24.2867 14.022 24.0533 14.022 23.96C14.022 23.8133 14.0554 23.7067 14.122 23.64C14.202 23.56 14.3487 23.52 14.562 23.52C15.002 23.52 15.4554 23.58 15.922 23.7C16.3887 23.8067 16.782 23.9733 17.102 24.2C17.422 24.4133 17.582 24.6867 17.582 25.02C17.582 25.1133 17.562 25.3267 17.522 25.66C17.4954 25.9933 17.462 26.3867 17.422 26.84C17.3954 27.2933 17.362 27.7533 17.322 28.22C17.282 28.6733 17.2487 29.08 17.222 29.44C17.1954 29.7867 17.182 30.0267 17.182 30.16C17.182 30.72 17.1954 31.0667 17.222 31.2C17.262 31.3333 17.3287 31.4 17.422 31.4C17.4754 31.4 17.5487 31.3533 17.642 31.26C17.7487 31.1667 17.8554 31.06 17.962 30.94C18.082 30.82 18.1954 30.7 18.302 30.58C18.4087 30.46 18.4887 30.3667 18.542 30.3C18.622 30.2067 18.6687 30.1533 18.682 30.14C18.6954 30.1267 18.722 30.12 18.762 30.12C18.842 30.12 18.922 30.18 19.002 30.3C19.0954 30.4067 19.162 30.5533 19.202 30.74C19.2154 30.82 19.2087 30.9067 19.182 31C19.1554 31.08 19.1154 31.16 19.062 31.24C18.9554 31.4133 18.7687 31.6667 18.502 32C18.2354 32.3333 17.9354 32.6733 17.602 33.02C17.2687 33.3667 16.942 33.66 16.622 33.9C16.3154 34.14 16.0487 34.26 15.822 34.26ZM15.742 21.78C15.3954 21.78 15.0887 21.7133 14.822 21.58C14.5554 21.4333 14.3487 21.2533 14.202 21.04C14.0554 20.8133 13.982 20.5933 13.982 20.38C13.982 20.02 14.0887 19.7333 14.302 19.52C14.5154 19.2933 14.7887 19.1333 15.122 19.04C15.4687 18.9333 15.8287 18.88 16.202 18.88C16.4954 18.88 16.7754 18.9267 17.042 19.02C17.322 19.1 17.5487 19.24 17.722 19.44C17.8954 19.64 17.982 19.9133 17.982 20.26C17.982 20.54 17.862 20.8 17.622 21.04C17.3954 21.2667 17.1087 21.4467 16.762 21.58C16.4154 21.7133 16.0754 21.78 15.742 21.78ZM17.6031 32.94C17.5498 32.98 17.4965 32.9467 17.4431 32.84C17.3765 32.7333 17.3231 32.6 17.2831 32.44C17.2431 32.2667 17.2231 32.1067 17.2231 31.96C17.2231 31.8 17.2498 31.6933 17.3031 31.64C17.9165 30.9867 18.4365 30.3467 18.8631 29.72C19.2898 29.0933 19.6431 28.4867 19.9231 27.9C20.2165 27.3 20.4831 26.7333 20.7231 26.2C20.8031 26.04 20.8565 26 20.8831 26.08C20.9231 26.16 20.9431 26.2867 20.9431 26.46C20.9565 26.6333 20.9565 26.78 20.9431 26.9C20.8898 27.3533 20.7565 27.86 20.5431 28.42C20.3298 28.98 20.0631 29.5467 19.7431 30.12C19.4365 30.68 19.0965 31.2067 18.7231 31.7C18.3498 32.1933 17.9765 32.6067 17.6031 32.94ZM23.1831 34.26C22.7565 34.26 22.3098 34.2 21.8431 34.08C21.3765 33.9733 20.9831 33.8133 20.6631 33.6C20.3565 33.3733 20.2031 33.0933 20.2031 32.76C20.2031 32.5067 20.2098 32.14 20.2231 31.66C20.2498 31.18 20.2765 30.6333 20.3031 30.02C20.3431 29.3933 20.3831 28.76 20.4231 28.12C20.4631 27.4667 20.4965 26.8533 20.5231 26.28C20.5631 25.6933 20.5898 25.2 20.6031 24.8C20.6298 24.3867 20.6431 24.1067 20.6431 23.96C20.6431 23.8133 20.6765 23.7067 20.7431 23.64C20.8231 23.56 20.9698 23.52 21.1831 23.52C21.6231 23.52 22.0765 23.58 22.5431 23.7C23.0098 23.8067 23.4031 23.9733 23.7231 24.2C24.0431 24.4133 24.2031 24.6867 24.2031 25.02C24.2031 25.0867 24.1965 25.2133 24.1831 25.4C24.1698 25.5867 24.1498 25.8067 24.1231 26.06C24.1098 26.3133 24.0898 26.5867 24.0631 26.88C24.0365 27.1733 24.0098 27.4667 23.9831 27.76C23.9565 28.04 23.9298 28.3067 23.9031 28.56C23.8898 28.8 23.8765 29 23.8631 29.16C23.9431 28.8133 24.1165 28.4067 24.3831 27.94C24.6631 27.46 24.9898 26.9667 25.3631 26.46C25.7498 25.94 26.1498 25.46 26.5631 25.02C26.9765 24.5667 27.3565 24.2067 27.7031 23.94C28.0631 23.66 28.3565 23.52 28.5831 23.52C28.6631 23.52 28.8098 23.5533 29.0231 23.62C29.2498 23.6867 29.4898 23.7867 29.7431 23.92C29.9965 24.04 30.2165 24.1867 30.4031 24.36C30.5898 24.52 30.7031 24.7067 30.7431 24.92C30.7698 25.04 30.7831 25.1733 30.7831 25.32C30.7965 25.4667 30.8031 25.62 30.8031 25.78C30.8031 25.9133 30.7898 26.1867 30.7631 26.6C30.7365 27.0133 30.7031 27.4733 30.6631 27.98C30.6231 28.4867 30.5898 28.9667 30.5631 29.42C30.5498 29.8733 30.5431 30.22 30.5431 30.46C30.5431 30.78 30.5565 30.9933 30.5831 31.1C30.6231 31.2067 30.6898 31.26 30.7831 31.26C30.8365 31.26 30.9098 31.22 31.0031 31.14C31.1098 31.0467 31.2165 30.94 31.3231 30.82C31.4431 30.6867 31.5498 30.56 31.6431 30.44C31.7498 30.32 31.8365 30.2267 31.9031 30.16C31.9698 30.08 32.0098 30.0333 32.0231 30.02C32.0498 29.9933 32.0765 29.98 32.1031 29.98C32.1965 29.98 32.2965 30.06 32.4031 30.22C32.5098 30.38 32.5631 30.5533 32.5631 30.74C32.5631 30.82 32.5431 30.9067 32.5031 31C32.4765 31.08 32.4365 31.16 32.3831 31.24C32.2631 31.4133 32.0698 31.6667 31.8031 32C31.5365 32.3333 31.2431 32.6733 30.9231 33.02C30.6031 33.3667 30.2831 33.66 29.9631 33.9C29.6565 34.14 29.3965 34.26 29.1831 34.26C29.1031 34.26 28.9498 34.2267 28.7231 34.16C28.5098 34.0933 28.2765 34 28.0231 33.88C27.7698 33.7467 27.5431 33.5933 27.3431 33.42C27.1431 33.2467 27.0231 33.06 26.9831 32.86C26.9698 32.7267 26.9565 32.5933 26.9431 32.46C26.9298 32.3133 26.9231 32.16 26.9231 32C26.9231 31.9067 26.9298 31.7133 26.9431 31.42C26.9698 31.1267 26.9965 30.7867 27.0231 30.4C27.0631 30.0133 27.0898 29.6333 27.1031 29.26C27.1298 28.8733 27.1498 28.5333 27.1631 28.24C27.1898 27.9467 27.2031 27.74 27.2031 27.62C27.2031 27.1267 27.1831 26.82 27.1431 26.7C27.1165 26.58 27.0565 26.52 26.9631 26.52C26.8831 26.52 26.7365 26.6333 26.5231 26.86C26.3098 27.0867 26.0698 27.3867 25.8031 27.76C25.5365 28.1333 25.2698 28.5533 25.0031 29.02C24.7498 29.4867 24.5231 29.96 24.3231 30.44C24.0965 31.0533 23.9365 31.62 23.8431 32.14C23.7631 32.66 23.7231 33.22 23.7231 33.82C23.7231 33.9667 23.6831 34.0733 23.6031 34.14C23.5365 34.22 23.3965 34.26 23.1831 34.26ZM30.8634 32.98C30.8234 33.02 30.7368 33.0267 30.6034 33C30.4568 32.9733 30.3101 32.9333 30.1634 32.88C30.0034 32.8133 29.8768 32.7467 29.7834 32.68C29.6768 32.6133 29.6434 32.56 29.6834 32.52C30.7901 31.36 31.6834 30.3133 32.3634 29.38C33.0301 28.4333 33.5234 27.58 33.8434 26.82C34.1768 26.06 34.3768 25.3733 34.4434 24.76C34.4701 24.5733 34.5301 24.5067 34.6234 24.56C34.7168 24.6133 34.8101 24.76 34.9034 25C35.0101 25.2267 35.0768 25.5133 35.1034 25.86C35.1301 26.1933 35.0901 26.56 34.9834 26.96C34.8234 27.4933 34.5634 28.0667 34.2034 28.68C33.8568 29.28 33.4634 29.8667 33.0234 30.44C32.5968 31.0133 32.1901 31.5267 31.8034 31.98C31.4034 32.4333 31.0901 32.7667 30.8634 32.98ZM36.5034 34.26C36.0768 34.26 35.6301 34.2 35.1634 34.08C34.6968 33.9733 34.3034 33.8133 33.9834 33.6C33.6768 33.3733 33.5234 33.0933 33.5234 32.76C33.5234 32.5467 33.5368 32.1667 33.5634 31.62C33.5901 31.06 33.6234 30.4 33.6634 29.64C33.7168 28.88 33.7701 28.0667 33.8234 27.2C33.8768 26.3333 33.9301 25.4667 33.9834 24.6C34.0368 23.7333 34.0834 22.9333 34.1234 22.2C34.1768 21.4533 34.2168 20.8267 34.2434 20.32C34.2701 19.8133 34.2834 19.48 34.2834 19.32C34.2834 19.1733 34.3168 19.0667 34.3834 19C34.4634 18.92 34.6101 18.88 34.8234 18.88C35.2768 18.88 35.7301 18.94 36.1834 19.06C36.6501 19.1667 37.0434 19.3333 37.3634 19.56C37.6834 19.7733 37.8434 20.0467 37.8434 20.38C37.8434 20.4467 37.8301 20.6867 37.8034 21.1C37.7768 21.5 37.7368 22 37.6834 22.6C37.6301 23.2 37.5768 23.84 37.5234 24.52C37.4701 25.1867 37.4168 25.8267 37.3634 26.44C37.3101 27.0533 37.2701 27.58 37.2434 28.02C37.2168 28.46 37.2034 28.74 37.2034 28.86C37.3101 28.4333 37.5034 27.98 37.7834 27.5C38.0768 27.02 38.4034 26.5467 38.7634 26.08C39.1368 25.6 39.5168 25.1667 39.9034 24.78C40.2901 24.3933 40.6501 24.0867 40.9834 23.86C41.3301 23.6333 41.6034 23.52 41.8034 23.52C41.9368 23.52 42.1234 23.56 42.3634 23.64C42.6034 23.72 42.8501 23.8533 43.1034 24.04C43.3701 24.2133 43.5901 24.44 43.7634 24.72C43.9501 24.9867 44.0434 25.32 44.0434 25.72C44.0434 26.0667 43.9501 26.4 43.7634 26.72C43.5768 27.04 43.3501 27.34 43.0834 27.62C42.8168 27.8867 42.5501 28.1133 42.2834 28.3C42.0301 28.4867 41.8301 28.62 41.6834 28.7C41.8034 28.78 41.9568 28.9 42.1434 29.06C42.3301 29.2067 42.5234 29.3733 42.7234 29.56C42.9234 29.7467 43.1168 29.9267 43.3034 30.1C43.4901 30.2733 43.6501 30.4333 43.7834 30.58C43.9168 30.7133 44.0101 30.86 44.0634 31.02C44.1168 31.18 44.1434 31.3467 44.1434 31.52C44.1434 31.9067 44.0368 32.32 43.8234 32.76C43.6101 33.1867 43.3568 33.58 43.0634 33.94C42.9168 34.1533 42.7834 34.26 42.6634 34.26C42.5568 34.26 42.4368 34.1933 42.3034 34.06C42.2234 33.9667 42.0434 33.7933 41.7634 33.54C41.4968 33.2733 41.1768 32.9667 40.8034 32.62C40.4434 32.2733 40.0768 31.9267 39.7034 31.58C39.3301 31.22 38.9834 30.9067 38.6634 30.64C38.3568 30.36 38.1301 30.1667 37.9834 30.06C38.4101 29.94 38.8434 29.7267 39.2834 29.42C39.7368 29.1133 40.1168 28.7733 40.4234 28.4C40.7301 28.0133 40.8834 27.62 40.8834 27.22C40.8834 26.94 40.8168 26.7467 40.6834 26.64C40.5501 26.52 40.4101 26.46 40.2634 26.46C40.1168 26.46 39.9168 26.58 39.6634 26.82C39.4101 27.06 39.1434 27.38 38.8634 27.78C38.5968 28.18 38.3301 28.6333 38.0634 29.14C37.8101 29.6467 37.5968 30.1733 37.4234 30.72C37.2368 31.28 37.1234 31.7933 37.0834 32.26C37.0568 32.7267 37.0434 33.2467 37.0434 33.82C37.0434 33.9667 37.0034 34.0733 36.9234 34.14C36.8568 34.22 36.7168 34.26 36.5034 34.26Z" fill="white"/>
</svg>
